<?xml version="1.0" encoding="UTF-8"?>
<!--Generator: Apple Native CoreSVG 232.5-->
<!DOCTYPE svg
PUBLIC "-//W3C//DTD SVG 1.1//EN"
       "http://www.w3.org/Graphics/SVG/1.1/DTD/svg11.dtd">
<svg version="1.1" xmlns="http://www.w3.org/2000/svg" xmlns:xlink="http://www.w3.org/1999/xlink" width="743.555" height="744.434">
 <g>
  <rect height="744.434" opacity="0" width="743.555" x="0" y="0"/>
  <path d="M0 499.805C0 515.039 10.5469 525.586 26.0742 525.586L66.7969 525.586L66.7969 650.391C66.7969 666.797 77.6367 677.637 94.043 677.637L218.555 677.637L218.555 718.359C218.555 733.887 229.102 744.434 244.336 744.434C259.863 744.434 270.41 733.887 270.41 718.359L270.41 677.637L345.703 677.637L345.703 718.359C345.703 733.887 356.543 744.434 371.777 744.434C387.305 744.434 397.852 733.887 397.852 718.359L397.852 677.637L473.145 677.637L473.145 718.359C473.145 733.887 483.691 744.434 499.219 744.434C514.453 744.434 525 733.887 525 718.359L525 677.637L649.512 677.637C665.918 677.637 676.758 666.797 676.758 650.391L676.758 525.293L717.48 525.293C733.008 525.293 743.555 514.746 743.555 499.512C743.555 483.984 733.008 473.438 717.48 473.438L676.758 473.438L676.758 397.852L717.48 397.852C733.008 397.852 743.555 387.305 743.555 372.07C743.555 356.543 733.008 345.996 717.48 345.996L676.758 345.996L676.758 270.41L717.48 270.41C733.008 270.41 743.555 259.863 743.555 244.629C743.555 229.102 733.008 218.555 717.48 218.555L676.758 218.555L676.758 94.9219C676.758 78.5156 665.918 67.6758 649.512 67.6758L525 67.6758L525 26.9531C525 11.4258 514.453 0.878906 499.219 0.878906C483.691 0.878906 473.145 11.4258 473.145 26.9531L473.145 67.6758L397.852 67.6758L397.852 26.9531C397.852 11.4258 387.305 0.878906 371.777 0.878906C356.543 0.878906 345.703 11.4258 345.703 26.9531L345.703 67.6758L270.41 67.6758L270.41 26.9531C270.41 11.4258 259.863 0.878906 244.336 0.878906C229.102 0.878906 218.555 11.4258 218.555 26.9531L218.555 67.6758L94.043 67.6758C77.6367 67.6758 66.7969 78.5156 66.7969 94.9219L66.7969 218.848L26.0742 218.848C10.5469 218.848 0 229.395 0 244.922C0 260.156 10.5469 270.703 26.0742 270.703L66.7969 270.703L66.7969 346.289L26.0742 346.289C10.5469 346.289 0 356.836 0 372.363C0 387.598 10.5469 398.145 26.0742 398.145L66.7969 398.145L66.7969 473.73L26.0742 473.73C10.5469 473.73 0 484.277 0 499.805ZM118.652 615.527L118.652 129.785C118.652 122.461 121.582 119.531 128.906 119.531L614.648 119.531C621.973 119.531 624.902 122.461 624.902 129.785L624.902 615.527C624.902 622.852 621.973 625.781 614.648 625.781L128.906 625.781C121.582 625.781 118.652 622.852 118.652 615.527ZM225.293 545.508L518.848 545.508C536.133 545.508 544.922 537.012 544.922 519.141L544.922 226.172C544.922 208.301 536.133 199.805 518.848 199.805L225.293 199.805C207.715 199.805 199.219 208.301 199.219 226.172L199.219 519.141C199.219 537.012 207.715 545.508 225.293 545.508ZM241.992 493.945L241.992 251.367C241.992 246.094 245.508 242.871 250.781 242.871L493.066 242.871C498.34 242.871 501.855 246.094 501.855 251.367L501.855 493.945C501.855 498.926 498.34 502.441 493.066 502.441L250.781 502.441C245.508 502.441 241.992 498.926 241.992 493.945Z" fill="#ffffff" fill-opacity="1"/>
 </g>
</svg>
