<?xml version="1.0" encoding="UTF-8"?>
<!--Generator: Apple Native CoreSVG 232.5-->
<!DOCTYPE svg
PUBLIC "-//W3C//DTD SVG 1.1//EN"
       "http://www.w3.org/Graphics/SVG/1.1/DTD/svg11.dtd">
<svg version="1.1" xmlns="http://www.w3.org/2000/svg" xmlns:xlink="http://www.w3.org/1999/xlink" width="763.184" height="763.77">
 <g>
  <rect height="763.77" opacity="0" width="763.184" x="0" y="0"/>
  <path d="M381.445 763.184C590.332 763.184 763.184 590.332 763.184 381.738C763.184 172.852 590.039 0 381.152 0C172.559 0 0 172.852 0 381.738C0 590.332 172.852 763.184 381.445 763.184ZM381.445 708.691C200.391 708.691 54.7852 562.793 54.7852 381.738C54.7852 200.391 200.098 54.7852 381.152 54.7852C562.5 54.7852 708.398 200.391 708.398 381.738C708.398 562.793 562.793 708.691 381.445 708.691Z" fill="#000000" fill-opacity="1"/>
  <path d="M314.355 591.504L468.75 591.504C482.227 591.504 492.773 581.543 492.773 568.359C492.773 555.469 482.227 545.215 468.75 545.215L417.188 545.215L417.188 340.43C417.188 323.438 408.398 311.719 391.992 311.719L319.922 311.719C306.445 311.719 295.898 321.68 295.898 334.57C295.898 347.754 306.445 357.715 319.922 357.715L365.918 357.715L365.918 545.215L314.355 545.215C300.879 545.215 290.625 555.469 290.625 568.359C290.625 581.543 300.879 591.504 314.355 591.504ZM378.809 244.922C403.711 244.922 423.047 225 423.047 200.684C423.047 175.781 403.711 155.859 378.809 155.859C354.199 155.859 334.57 175.781 334.57 200.684C334.57 225 354.199 244.922 378.809 244.922Z" fill="#000000" fill-opacity="1"/>
 </g>
</svg>
