<?xml version="1.0" encoding="UTF-8"?>
<!--Generator: Apple Native CoreSVG 232.5-->
<!DOCTYPE svg
PUBLIC "-//W3C//DTD SVG 1.1//EN"
       "http://www.w3.org/Graphics/SVG/1.1/DTD/svg11.dtd">
<svg version="1.1" xmlns="http://www.w3.org/2000/svg" xmlns:xlink="http://www.w3.org/1999/xlink" width="789.808" height="797.828">
 <g>
  <rect height="797.828" opacity="0" width="789.808" x="0" y="0"/>
  <path d="M386.17 242.322L342.517 286.267C397.01 288.025 432.459 303.26 459.998 331.092C527.381 398.182 527.088 494.568 459.705 561.658L336.365 684.998C268.689 752.381 172.889 752.967 105.799 685.877C38.123 618.201 38.7089 522.107 106.092 455.017L189.295 371.521C180.799 351.6 178.455 327.283 182.557 305.31L66.5409 421.326C-21.6427 509.51-22.8145 634.9 66.8339 724.549C156.482 814.197 282.166 813.025 370.057 724.842L499.256 595.642C587.439 507.166 588.611 381.775 498.963 292.127C472.303 265.76 439.197 248.182 386.17 242.322ZM403.748 549.06L447.107 505.115C392.908 503.357 357.459 488.123 329.92 460.291C262.537 393.201 262.83 296.814 330.213 229.725L453.553 106.385C521.228 39.0019 617.029 38.4159 684.119 105.506C751.795 173.182 751.209 269.275 683.826 336.365L600.623 419.861C609.119 439.783 611.463 464.1 607.361 486.072L723.377 370.057C811.56 281.873 812.439 156.482 723.084 66.8339C633.142-22.8145 507.752-21.6427 419.861 66.5409L290.662 195.74C202.478 283.924 201.307 409.607 290.955 499.256C317.615 525.623 350.428 543.201 403.748 549.06Z" fill="#ffffff" fill-opacity="1"/>
 </g>
</svg>
