<?xml version="1.0" encoding="UTF-8"?>
<!--Generator: Apple Native CoreSVG 232.5-->
<!DOCTYPE svg
PUBLIC "-//W3C//DTD SVG 1.1//EN"
       "http://www.w3.org/Graphics/SVG/1.1/DTD/svg11.dtd">
<svg version="1.1" xmlns="http://www.w3.org/2000/svg" xmlns:xlink="http://www.w3.org/1999/xlink" width="770.215" height="737.988">
 <g>
  <rect height="737.988" opacity="0" width="770.215" x="0" y="0"/>
  <path d="M38.3789 722.754C47.168 722.754 55.957 719.531 67.0898 713.379L260.449 607.91L467.871 726.562C481.055 734.18 494.824 737.988 508.008 737.988C520.605 737.988 532.91 734.473 544.336 727.734L740.625 615.234C761.133 603.809 770.215 587.988 770.215 564.551L770.215 55.6641C770.215 30.1758 756.152 15.5273 731.836 15.5273C723.047 15.5273 714.258 18.75 703.125 24.6094L503.32 135.352L300 10.8398C287.988 3.80859 275.098 0.292969 261.914 0.292969C248.73 0.292969 235.254 3.80859 223.242 10.8398L29.5898 123.047C9.08203 134.766 0 150.293 0 174.023L0 682.324C0 708.105 14.0625 722.754 38.3789 722.754ZM239.648 557.227L62.9883 654.785C61.2305 655.664 59.1797 656.543 57.4219 656.543C54.1992 656.543 51.8555 653.906 51.8555 649.805L51.8555 186.328C51.8555 177.246 55.0781 170.801 64.1602 165.527L226.465 69.7266C230.859 67.0898 234.961 65.0391 239.648 62.6953ZM291.504 562.207L291.504 69.1406C295.312 70.8984 299.707 73.2422 303.223 75.293L478.711 182.52L478.711 669.141C473.73 666.797 468.457 664.16 463.477 661.23ZM530.859 674.707L530.859 179.59L707.227 83.4961C709.277 82.3242 711.035 81.7383 712.793 81.7383C716.309 81.7383 718.359 84.082 718.359 88.1836L718.359 551.953C718.359 561.035 715.137 567.773 706.348 573.047L546.68 666.211C541.406 669.434 536.133 672.07 530.859 674.707Z" fill="#000000" fill-opacity="1"/>
 </g>
</svg>
