<?xml version="1.0" encoding="UTF-8"?>
<!--Generator: Apple Native CoreSVG 232.5-->
<!DOCTYPE svg
PUBLIC "-//W3C//DTD SVG 1.1//EN"
       "http://www.w3.org/Graphics/SVG/1.1/DTD/svg11.dtd">
<svg version="1.1" xmlns="http://www.w3.org/2000/svg" xmlns:xlink="http://www.w3.org/1999/xlink" width="592.677" height="593.336">
 <g>
  <rect height="593.336" opacity="0" width="592.677" x="0" y="0"/>
  <path d="M8.24011 585.096C19.6659 595.935 37.83 595.935 48.9628 585.096L296.228 337.537L543.787 585.096C554.627 595.935 573.377 596.228 584.217 585.096C595.349 573.67 595.349 555.506 584.217 544.666L336.951 297.107L584.217 49.5487C595.349 38.7089 595.642 20.2518 584.217 9.11902C573.084-1.72083 554.627-1.72083 543.787 9.11902L296.228 256.678L48.9628 9.11902C37.83-1.72083 19.3729-2.01379 8.24011 9.11902C-2.59973 20.5448-2.59973 38.7089 8.24011 49.5487L255.799 297.107L8.24011 544.666C-2.59973 555.506-2.8927 573.963 8.24011 585.096Z" fill="#ffffff" fill-opacity="1"/>
 </g>
</svg>
