<?xml version="1.0" encoding="UTF-8"?>
<!--Generator: Apple Native CoreSVG 232.5-->
<!DOCTYPE svg
PUBLIC "-//W3C//DTD SVG 1.1//EN"
       "http://www.w3.org/Graphics/SVG/1.1/DTD/svg11.dtd">
<svg version="1.1" xmlns="http://www.w3.org/2000/svg" xmlns:xlink="http://www.w3.org/1999/xlink" width="817.969" height="806.177">
 <g>
  <rect height="806.177" opacity="0" width="817.969" x="0" y="0"/>
  <path d="M408.691 758.313C418.359 758.313 428.027 758.02 437.402 757.141L457.324 794.934C461.426 803.43 469.336 807.532 479.883 805.774C489.844 804.016 495.703 797.571 496.875 787.317L503.32 745.715C521.484 740.735 539.648 733.996 556.934 726.379L587.988 753.918C595.02 760.071 604.102 762.121 613.77 757.141C621.973 752.453 625.781 743.664 623.145 733.703L614.941 692.688C629.883 681.848 645.117 669.543 658.594 656.36L696.68 672.18C706.348 675.989 714.844 673.938 722.461 665.735C728.613 658.118 728.906 649.036 723.926 640.539L701.66 604.797C712.5 589.563 721.875 572.571 730.371 555.286L772.266 557.043C781.934 557.629 790.137 552.942 793.066 542.688C796.582 533.606 793.359 525.11 785.742 518.957L753.223 492.59C757.91 474.426 761.133 455.676 762.891 436.047L802.148 423.157C812.402 419.934 817.969 412.903 817.969 402.942C817.969 392.688 812.402 385.657 802.148 382.434L762.891 369.836C761.133 350.207 757.91 331.457 753.223 313L785.742 286.926C792.773 281.067 796.289 272.864 793.066 263.489C790.137 253.235 781.934 248.547 772.266 249.133L730.371 250.598C721.875 233.02 712.5 216.614 701.66 201.086L723.926 165.051C728.906 157.141 728.613 148.059 722.461 140.442C714.844 131.946 706.348 130.188 696.973 133.996L658.594 149.231C645.117 136.633 629.883 124.036 614.941 113.196L623.145 72.473C625.488 61.9262 621.973 53.4301 613.77 49.0355C604.102 44.0551 595.312 45.2269 587.988 51.9652L556.934 79.2113C539.648 71.8871 521.484 65.4418 503.32 60.1683L496.875 18.8597C495.703 8.60584 489.551 2.16053 479.59 0.402717C469.336-1.3551 461.426 2.74647 457.324 10.6566L437.402 48.7426C428.027 47.8637 418.359 47.2777 408.691 47.2777C399.023 47.2777 389.648 47.8637 379.98 48.7426L360.059 10.6566C355.957 2.74647 348.047-1.3551 337.793 0.402717C327.539 2.16053 322.266 8.60584 320.508 18.8597L314.062 60.1683C295.898 65.4418 278.027 71.5941 260.156 79.2113L229.688 52.2582C222.07 45.2269 213.281 44.0551 203.613 49.0355C195.41 53.4301 192.188 61.9262 194.238 72.473L202.441 113.196C187.5 124.036 172.266 136.633 158.789 149.231L120.41 133.996C111.035 130.188 102.539 131.946 94.9219 140.442C89.0625 148.059 88.1836 157.141 93.457 165.051L115.723 201.086C105.176 216.614 96.0938 233.02 87.0117 250.598L45.4102 249.133C35.4492 248.547 27.5391 253.235 24.3164 263.489C21.0938 272.864 24.0234 280.774 31.6406 286.926L64.4531 313C59.4727 331.457 56.25 350.207 55.0781 369.836L14.9414 382.434C4.98047 385.657 0 392.688 0 402.942C0 413.196 4.98047 419.934 14.9414 423.157L55.0781 436.047C56.25 455.676 59.4727 474.426 64.4531 492.59L31.6406 518.957C24.0234 524.524 21.0938 533.313 24.3164 542.688C27.2461 552.942 35.4492 557.629 45.4102 557.043L87.0117 555.286C95.8008 572.571 105.176 589.563 115.43 604.797L93.75 640.539C88.7695 649.036 88.7695 658.118 94.9219 665.735C102.539 673.938 111.035 675.989 120.703 672.18L158.789 656.36C172.266 669.543 187.5 681.848 202.441 692.688L194.238 733.703C192.48 743.664 195.41 752.453 203.613 757.141C213.281 762.121 222.363 760.071 229.688 753.918L260.156 726.379C278.027 733.996 295.898 740.735 314.062 745.715L320.508 787.317C322.266 797.571 327.539 804.016 337.793 805.774C348.047 807.532 355.957 803.43 360.059 794.934L379.98 757.141C389.355 758.02 399.023 758.313 408.691 758.313ZM408.691 706.457C239.648 706.457 109.277 572.278 109.277 403.235C109.277 233.899 239.648 99.1332 408.691 99.1332C578.027 99.1332 708.984 233.899 708.984 403.235C708.984 572.278 578.027 706.457 408.691 706.457ZM347.754 345.52L386.719 321.496L259.277 102.649L218.848 125.207ZM489.551 424.621L743.262 424.621L743.262 379.211L489.551 379.211ZM388.184 484.973L349.805 460.364L216.211 679.504L256.055 702.942ZM408.398 496.985C460.254 496.985 502.148 455.383 502.148 403.528C502.148 351.672 460.254 309.485 408.398 309.485C356.543 309.485 314.648 351.672 314.648 403.528C314.648 455.383 356.543 496.985 408.398 496.985ZM408.398 448.352C382.91 448.352 363.281 429.309 363.281 403.528C363.281 377.746 382.91 358.118 408.398 358.118C433.887 358.118 453.809 377.746 453.809 403.528C453.809 429.309 433.887 448.352 408.398 448.352Z" fill="#000000" fill-opacity="1"/>
 </g>
</svg>
